<svg xmlns="http://www.w3.org/2000/svg" viewBox="0 0 640 240" fill="none" stroke="#b39b70" stroke-width="2">
<g opacity=".65"><path d="M25 208h590M60 217h510M76 194l35-47 50-8V87h71V56h25v32h53v52h112V99h96v55h70v43H110M166 90h60v48h-60zM260 98h43v34h-43zM432 112h33v33h-33zM478 112h27v33h-27z"/><path d="M110 149l-48 44 35-8-17 18 29-7 12-16M190 57V23h22v35M175 20l49-6-11 18-30-3M340 141l-11-25 19 17 8-26 10 29 17-20 1 26M528 153l11-27 9 27 16-22 5 28"/><g stroke-width="5"><circle cx="159" cy="184" r="23"/><circle cx="224" cy="184" r="23"/><circle cx="290" cy="184" r="23"/><circle cx="451" cy="184" r="23"/><circle cx="512" cy="184" r="23"/></g><path d="M137 184h175M428 184h107M168 4c-28-13-53 6-73-2M237 30c36-20 46-2 65-15M344 162h52v29h-52zM347 164l15 10 16-10M365 176v11"/></g>
<g opacity=".65" transform="translate(380 25) rotate(-12)"><path d="M0 25h116v12H0zM76 37h29v20H76zM79 55l-8 31-25-4 10-40M10 19h105M14 38l-7 9M110 24v-6"/><circle cx="69" cy="37" r="11"/></g>
<g opacity=".45" transform="translate(38 40)"><path d="M0 18l20-15 23 2 17 20-6 35-13 10H16L0 58zM11 29l14 4-7 12-10-2zM33 32l15-6 2 17-13 4zM25 47l6 9-10 1zM15 63v12m9-12v13m9-13v13m9-13v11"/></g>
</svg>
